# xmcd
#
# Track frame offsets: 
#        150
#        14936
#        33354
#        50378
#        68849
#        84701
#        99866
#        115781
#        135221
#        151863
#        167286
#
# Disc length: 2566 seconds
#
# Revision: 0
# Processed by: cddbd v1.5.2PL0 Copyright (c) Steve Scherf et al.
# Submitted via: ExactAudioCopyFreeDBPlugin 1.0
#
DISCID=7c0a040b
DTITLE=The Farm - The Farm
DYEAR=2012
DGENRE=
TTITLE0=Farm Party
TTITLE1=Home Sweet Home
TTITLE2=Sweet Sweet Sunshine
TTITLE3=Be Grateful
TTITLE4=Nowhere Road
TTITLE5=Fresh Off The Farm
TTITLE6=Little Boat
TTITLE7=That 100 Miles
TTITLE8=Every Time I Fall In Love
TTITLE9=The Train I'm On
TTITLE10=Walkin
EXTD=
EXTT0=
EXTT1=
EXTT2=
EXTT3=
EXTT4=
EXTT5=
EXTT6=
EXTT7=
EXTT8=
EXTT9=
EXTT10=
PLAYORDER=
